<svg width="67" height="58" viewBox="0 0 67 58" fill="none" xmlns="http://www.w3.org/2000/svg">
<path d="M24.3055 24.02C24.3055 21.9829 25.2567 20.0292 26.9497 18.5888C28.6428 17.1483 30.939 16.3391 33.3333 16.3391C35.7276 16.3391 38.0239 17.1483 39.7169 18.5888C41.41 20.0292 42.3611 21.9829 42.3611 24.02C42.3611 26.0571 41.41 28.0107 39.7169 29.4512C38.0239 30.8916 35.7276 31.7008 33.3333 31.7008C30.939 31.7008 28.6428 30.8916 26.9497 29.4512C25.2567 28.0107 24.3055 26.0571 24.3055 24.02Z" fill="#111111"/>
<path fill-rule="evenodd" clip-rule="evenodd" d="M10.4833 21.3658C10.9454 16.6149 13.4895 12.1853 17.611 8.95583C21.7325 5.72635 27.1302 3.93295 32.7333 3.9314H33.9333C39.5364 3.93295 44.9342 5.72635 49.0557 8.95583C53.1772 12.1853 55.7213 16.6149 56.1833 21.3658C56.6961 26.6701 54.7713 31.9369 50.8139 36.0587L37.5 49.9126C36.9954 50.4381 36.3598 50.8615 35.6391 51.1523C34.9185 51.4431 34.1309 51.594 33.3333 51.594C32.5358 51.594 31.7482 51.4431 31.0275 51.1523C30.3069 50.8615 29.6713 50.4381 29.1667 49.9126L15.8556 36.0587C11.8971 31.9372 9.97138 26.6704 10.4833 21.3658ZM33.3333 12.7939C29.834 12.7939 26.4779 13.9767 24.0035 16.0819C21.529 18.1872 20.1389 21.0425 20.1389 24.0198C20.1389 26.9971 21.529 29.8524 24.0035 31.9577C26.4779 34.063 29.834 35.2457 33.3333 35.2457C36.8327 35.2457 40.1888 34.063 42.6632 31.9577C45.1377 29.8524 46.5278 26.9971 46.5278 24.0198C46.5278 21.0425 45.1377 18.1872 42.6632 16.0819C40.1888 13.9767 36.8327 12.7939 33.3333 12.7939Z" fill="#111111"/>
</svg>
