<svg width="67" height="58" viewBox="0 0 67 58" fill="none" xmlns="http://www.w3.org/2000/svg">
<path d="M30.3876 6.16635C31.169 5.50176 32.2286 5.12842 33.3334 5.12842C34.4383 5.12842 35.4979 5.50176 36.2793 6.16635L45.8334 14.2951V9.71137C45.8334 9.24127 46.0529 8.79042 46.4436 8.45801C46.8343 8.1256 47.3642 7.93886 47.9168 7.93886H52.0834C52.636 7.93886 53.1659 8.1256 53.5566 8.45801C53.9473 8.79042 54.1668 9.24127 54.1668 9.71137V21.3851L63.9751 29.7265C64.3657 30.0593 64.585 30.5106 64.5846 30.9809C64.5842 31.4513 64.3642 31.9023 63.973 32.2346C63.5818 32.567 63.0515 32.7535 62.4986 32.7532C61.9458 32.7528 61.4157 32.5657 61.0251 32.2328L33.3334 8.67268L5.64177 32.2328C5.25113 32.5657 4.72108 32.7528 4.16824 32.7532C3.6154 32.7535 3.08505 32.567 2.69385 32.2346C2.30266 31.9023 2.08267 31.4513 2.08228 30.9809C2.08189 30.5106 2.30113 30.0593 2.69177 29.7265L30.3876 6.16635Z" fill="#111111"/>
<path d="M58.3335 33.7925L33.3335 12.5225L8.3335 33.7925V48.7064C8.3335 50.1167 8.99198 51.4692 10.1641 52.4665C11.3362 53.4637 12.9259 54.0239 14.5835 54.0239H52.0835C53.7411 54.0239 55.3308 53.4637 56.5029 52.4665C57.675 51.4692 58.3335 50.1167 58.3335 48.7064V33.7925ZM33.3335 30.9175C40.2668 24.9867 57.6043 35.363 33.3335 48.7064C9.06266 35.363 26.4002 24.9867 33.3335 30.9175Z" fill="#111111"/>
</svg>
