<svg width="120" height="120" viewBox="0 0 120 120" fill="none" xmlns="http://www.w3.org/2000/svg">
<g clip-path="url(#clip0_7_283)">
<path d="M118.125 112.5H106.875V78.2962C113.73 81.9619 113.936 89.3925 113.936 89.3925C115.243 79.0425 110.482 75.0619 106.768 73.5244C106.712 73.1039 106.632 72.687 106.528 72.2756C114.066 66.1312 120 68.6869 120 68.6869C113.254 60.5362 107.497 64.1269 104.224 67.7644C103.171 66.5072 101.856 65.4963 100.37 64.8027C98.8843 64.1091 97.2646 63.7497 95.625 63.75H86.25V48.75C86.25 42.5475 81.2044 37.5 75 37.5H73.125V26.25C73.125 24.2306 72.1294 21.825 70.7006 20.3981L67.7269 17.4225C66.3 15.9975 63.8925 15 61.875 15V12.2963C66.8737 15.1706 68.1225 9.42 73.125 12.2963V2.70562C68.1225 -0.16875 66.8737 5.58187 61.875 2.70562V1.875C61.875 0.84375 61.0294 0 60 0C58.9669 0 58.125 0.84375 58.125 1.875V15C56.1075 15 53.7 15.9975 52.2731 17.4225L49.2994 20.3981C47.8706 21.825 46.875 24.2306 46.875 26.25V37.5H45C38.7956 37.5 33.75 42.5475 33.75 48.75V63.75H24.375C22.735 63.7505 21.1149 64.1101 19.6288 64.8036C18.1426 65.4971 16.8263 66.5077 15.7725 67.7644C12.5025 64.1269 6.74437 60.5344 0 68.6869C0 68.6869 5.9325 66.1312 13.4738 72.2794C13.3704 72.6895 13.2903 73.1052 13.2338 73.5244C9.51937 75.0619 4.75687 79.0425 6.06562 89.3925C6.06562 89.3925 6.27 81.9581 13.1269 78.2962V112.5H1.875C0.841875 112.5 0 113.346 0 114.375V118.125C0 119.158 0.841875 120 1.875 120H118.125C119.154 120 120 119.158 120 118.125V114.375C120 113.346 119.154 112.5 118.125 112.5ZM101.302 76.9481C101.616 76.86 101.895 76.7569 102.227 76.68C102.857 76.7981 103.438 76.9519 104.002 77.1188C104.143 78.3094 104.301 79.8244 104.441 81.7106H101.203C101.254 80.1712 101.286 78.5738 101.302 76.9481ZM101.188 82.365C102.607 84.1631 103.8 83.5369 104.514 82.7681C104.622 84.3356 104.709 86.1069 104.775 88.0819H100.922C101.027 86.2463 101.119 84.3525 101.188 82.365ZM99.375 77.5594L99.4219 77.5406C99.375 80.9494 99.2531 84.1725 99.09 87.1969C98.931 86.9138 98.7004 86.6773 98.4214 86.5112C98.1424 86.345 97.8247 86.255 97.5 86.25H90.6769C91.1081 84.495 92.0831 82.4569 94.1119 80.625H97.5C98.5294 80.625 99.375 79.7831 99.375 78.75V77.5594ZM20.625 77.5631V78.75C20.625 79.7831 21.4669 80.625 22.5 80.625H25.8881C27.915 82.4569 28.89 84.495 29.3212 86.25H22.5C22.1752 86.2544 21.8572 86.3441 21.5779 86.5099C21.2985 86.6757 21.0676 86.912 20.9081 87.195C20.7431 84.1744 20.625 80.9512 20.5763 77.5425L20.625 77.5631ZM15.9956 77.1206C16.5581 76.9519 17.1394 76.7981 17.7675 76.6819C18.1012 76.7625 18.3806 76.8619 18.6956 76.95C18.7144 78.5756 18.7444 80.1731 18.7913 81.7144H15.555C15.6975 79.8263 15.8531 78.3112 15.9956 77.1206ZM15.4838 82.7681C16.2019 83.5369 17.3944 84.1631 18.8119 82.3612C18.8775 84.3506 18.9694 86.2425 19.0781 88.0819H15.2194C15.2869 86.1069 15.375 84.3356 15.4838 82.7681ZM15.1913 89.0044C16.005 89.7994 17.4169 90.5569 19.125 88.9163C19.2437 90.8587 19.3769 92.7019 19.5244 94.4456H15.1312C15.1275 92.505 15.1463 90.6806 15.1913 89.0044ZM15.135 95.3175C16.0012 96.1931 17.6138 97.0931 19.5525 94.8187C19.74 96.99 19.9388 98.9944 20.1394 100.813H15.255C15.1919 98.9818 15.1518 97.1498 15.135 95.3175ZM15.2756 101.349C16.0819 102.195 17.9269 103.551 20.2387 101.691C20.3662 102.808 20.4975 103.826 20.6231 104.788V105C20.6231 105.146 20.6737 105.277 20.7075 105.418C20.7925 106.047 20.875 106.635 20.955 107.183H15.5681C15.4452 105.239 15.3477 103.295 15.2756 101.349ZM15.96 112.5C15.8138 110.786 15.6919 109.134 15.5887 107.527C16.305 108.358 18.3956 110.229 21.045 107.788C21.495 110.812 21.8306 112.5 21.8306 112.5H15.96ZM41.25 90.1181L38.9325 91.875L39.8119 89.0156L37.5 87.2419L40.3594 87.2306L41.25 84.375L42.1406 87.2306L45 87.2419L42.69 89.0137L43.5675 91.875L41.25 90.1181ZM45 118.125L47.4994 116.25H72.5006L75 118.125H45ZM52.9425 91.875L50.625 90.1181L48.3075 91.875L49.1869 89.0156L46.875 87.2419L49.7344 87.2306L50.625 84.375L51.5156 87.2306L54.375 87.2419L52.065 89.0137L52.9425 91.875ZM52.5 93.75V112.5H46.875V93.75H52.5ZM62.3175 91.875L60 90.1181L57.6825 91.875L58.5619 89.0156L56.25 87.2419L59.1094 87.2306L60 84.375L60.8906 87.2306L63.75 87.2419L61.44 89.0137L62.3175 91.875ZM61.875 93.75V112.5H58.125V93.75H61.875ZM71.6925 91.875L69.375 90.1181L67.0575 91.875L67.9369 89.0156L65.625 87.2419L68.4844 87.2306L69.375 84.375L70.2656 87.2306L73.125 87.2419L70.815 89.0137L71.6925 91.875ZM73.125 93.75V112.5H67.5V93.75H73.125ZM76.4325 91.875L77.3119 89.0156L75 87.2419L77.8594 87.2306L78.75 84.375L79.6406 87.2306L82.5 87.2419L80.19 89.0137L81.0675 91.875L78.75 90.1181L76.4325 91.875ZM97.5 99.375H90C88.9669 99.375 88.125 100.221 88.125 101.25V105C88.125 106.033 88.9669 106.875 90 106.875H97.1869C96.9402 108.634 96.6539 110.388 96.3281 112.134L96.2531 112.5H80.625V93.75H84.375V82.5H35.625V93.75H39.375V112.5H23.7412L23.6681 112.134C23.3424 110.388 23.0567 108.634 22.8113 106.875H30C31.0294 106.875 31.875 106.033 31.875 105V101.25C31.875 100.221 31.0294 99.375 30 99.375H22.5C22.292 99.3823 22.0867 99.4241 21.8925 99.4988C21.6706 97.4321 21.4768 95.3625 21.3113 93.2906C21.64 93.5807 22.0616 93.7436 22.5 93.75H30C31.0294 93.75 31.875 92.9081 31.875 91.875V88.125C31.875 87.3487 31.3913 86.6794 30.7162 86.3962C31.0481 84.1631 30.7556 82.2469 30.0563 80.6137C31.0575 80.5819 31.875 79.7606 31.875 78.75V75C31.875 73.9706 31.0294 73.125 30 73.125H22.5C22.2348 73.1288 21.9734 73.1889 21.7331 73.3013C21.5269 73.2131 21.3169 73.1213 21.12 73.0406C30.2644 64.4494 37.5 70.8844 37.5 70.8844C36.5418 69.5882 35.3902 68.4468 34.0856 67.5H37.5V48.75C37.5 44.625 40.8731 41.25 45 41.25H50.625V26.25C50.625 25.2188 51.2213 23.7787 51.9506 23.0475L54.9244 20.0756C55.6537 19.3463 57.0919 18.75 58.125 18.75H61.875C62.9044 18.75 64.3463 19.3463 65.0756 20.0775L68.0494 23.0494C68.7787 23.7787 69.375 25.2188 69.375 26.25V41.25H75C79.1231 41.25 82.5 44.625 82.5 48.75V67.5H85.9125C84.6086 68.4469 83.4577 69.5883 82.5 70.8844C82.5 70.8844 89.7337 64.4494 98.8763 73.0406C98.6794 73.1213 98.4694 73.2131 98.265 73.3013C98.0263 73.1863 97.7649 73.1261 97.5 73.125H90C88.9669 73.125 88.125 73.9706 88.125 75V78.75C88.1277 79.2354 88.3185 79.7009 88.6574 80.0485C88.9962 80.3961 89.4567 80.5987 89.9419 80.6137C89.2425 82.2469 88.9519 84.1631 89.28 86.3962C88.605 86.6794 88.125 87.3487 88.125 88.125V91.875C88.125 92.9081 88.9669 93.75 90 93.75H97.5C97.9368 93.7405 98.3566 93.5786 98.6869 93.2925C98.5209 95.3643 98.3277 97.4339 98.1075 99.5006C97.9145 99.4216 97.7085 99.379 97.5 99.375ZM104.036 112.5H98.1656C98.1656 112.5 98.5013 110.812 98.9494 107.79C101.601 110.229 103.689 108.358 104.407 107.526C104.304 109.134 104.183 110.786 104.036 112.5ZM104.428 107.183H99.0412L99.2831 105.446C99.3225 105.3 99.375 105.158 99.375 105V104.769C99.5006 103.813 99.63 102.799 99.7594 101.685C102.069 103.549 103.914 102.193 104.721 101.347C104.651 103.209 104.558 105.146 104.428 107.183ZM104.741 100.815H99.855C100.061 98.9925 100.257 96.9931 100.444 94.8169C102.381 97.0912 103.995 96.1969 104.859 95.3231C104.847 97.0531 104.808 98.8838 104.741 100.815ZM100.474 94.4456C100.62 92.6981 100.757 90.8606 100.877 88.9125C102.581 90.5531 103.995 89.7994 104.807 89.0081C104.85 90.6825 104.869 92.505 104.863 94.4456H100.474Z" fill="#111111"/>
<path d="M39.5981 79.5413V75.7406H43.0406V79.5413H45.1237V70.4625H43.0406V73.9481H39.5981V70.4625H37.5V79.5413H39.5981ZM52.3931 70.3125C49.665 70.3125 47.8969 72.3488 47.8969 75.0656C47.8969 77.655 49.5 79.6875 52.2431 79.6875C54.9431 79.6875 56.7844 77.8819 56.7844 74.9081C56.7844 72.3994 55.2319 70.3125 52.3931 70.3125ZM52.3538 78.0581C50.955 78.0581 50.1056 76.8056 50.1056 75.0262C50.1056 73.2656 50.9269 71.9419 52.3387 71.9419C53.7844 71.9419 54.5756 73.3444 54.5756 74.9738C54.5756 76.74 53.7675 78.0581 52.3538 78.0581ZM58.4438 72.1838H60.9262V79.5413H63.0206V72.1838H65.5481V70.4625H58.4438V72.1838ZM70.1325 75.6994H73.5319V74.0287H70.1325V72.1481H73.7363V70.4625H68.0269V79.5413H73.9275V77.8556H70.1325V75.6994ZM78.8231 70.4625H76.725V79.5413H82.5V77.8162H78.8231V70.4625ZM63.75 45H56.25C55.2169 45 54.375 45.8438 54.375 46.875V61.875C54.375 62.9081 55.2169 63.75 56.25 63.75H63.75C64.7794 63.75 65.625 62.9081 65.625 61.875V46.875C65.625 45.8438 64.7794 45 63.75 45ZM56.25 37.5C57.2794 37.5 58.125 36.6562 58.125 35.625V28.125C58.125 27.0938 57.2794 26.25 56.25 26.25C55.2169 26.25 54.375 27.0938 54.375 28.125V35.625C54.375 36.6562 55.2169 37.5 56.25 37.5ZM63.75 26.25C62.7169 26.25 61.875 27.0938 61.875 28.125V35.625C61.875 36.6562 62.7169 37.5 63.75 37.5C64.7794 37.5 65.625 36.6562 65.625 35.625V28.125C65.625 27.0938 64.7794 26.25 63.75 26.25ZM43.125 52.5H48.75C49.7794 52.5 50.625 51.6581 50.625 50.625V46.875C50.625 45.8438 49.7794 45 48.75 45H43.125C42.0919 45 41.25 45.8438 41.25 46.875V50.625C41.25 51.6562 42.0919 52.5 43.125 52.5ZM50.625 61.875V58.125C50.625 57.0956 49.7794 56.25 48.75 56.25H43.125C42.0919 56.25 41.25 57.0956 41.25 58.125V61.875C41.25 62.9081 42.0919 63.75 43.125 63.75H48.75C49.7794 63.75 50.625 62.9081 50.625 61.875ZM71.25 52.5H76.875C77.9044 52.5 78.75 51.6581 78.75 50.625V46.875C78.75 45.8438 77.9044 45 76.875 45H71.25C70.2169 45 69.375 45.8438 69.375 46.875V50.625C69.375 51.6562 70.2169 52.5 71.25 52.5ZM71.25 63.75H76.875C77.9044 63.75 78.75 62.9081 78.75 61.875V58.125C78.75 57.0956 77.9044 56.25 76.875 56.25H71.25C70.2169 56.25 69.375 57.0956 69.375 58.125V61.875C69.375 62.9081 70.2169 63.75 71.25 63.75Z" fill="#111111"/>
</g>
<defs>
<clipPath id="clip0_7_283">
<rect width="120" height="120" fill="white"/>
</clipPath>
</defs>
</svg>
