<svg width="148" height="109" viewBox="0 0 148 109" fill="none" xmlns="http://www.w3.org/2000/svg">
<path fill-rule="evenodd" clip-rule="evenodd" d="M136.079 57.675H126.854V64.425H136.079V57.675Z" fill="#111111"/>
<path fill-rule="evenodd" clip-rule="evenodd" d="M136.125 77.8642V68.5459C139.314 68.1259 142.197 66.8953 144.266 65.0711C146.336 63.247 147.458 60.9467 147.435 58.5761C147.424 57.2518 147.052 55.9425 146.339 54.7252C145.626 53.508 144.587 52.4075 143.284 51.4886L95.0368 16.7025C92.4452 14.8394 88.9561 13.7969 85.3229 13.8L85.2998 13.8169C81.6808 13.8127 78.2036 14.8462 75.6136 16.6957L69.7696 20.8875C68.768 19.7503 67.3932 18.8147 65.7705 18.1662C64.1478 17.5177 62.3289 17.1769 60.48 17.175H50.3786C47.4279 17.1804 44.6005 18.0418 42.5166 19.5704C40.4327 21.099 39.2625 23.1699 39.2625 25.329V42.879L27.1639 51.6C25.3555 52.9053 24.0772 54.5519 23.4711 56.3569C22.865 58.1619 22.9547 60.0545 23.7304 61.8244C24.5061 63.5943 25.9374 65.1721 27.8651 66.3825C29.7928 67.593 32.1414 68.3885 34.65 68.6809V94.8H30.0375V71.2324C25.9174 70.0367 22.5286 67.7898 20.4977 64.9072C18.4669 62.0245 17.9315 58.7013 18.9905 55.5521C19.8057 53.142 21.5134 50.943 23.9259 49.197L34.65 41.4682V34.05C26.2829 34.1614 19.5348 39.2542 19.5348 45.5081H19.1612C11.4629 45.5081 5.1715 50.1521 5.1715 55.9166V58.0496C5.1715 60.1792 6.06632 62.1705 7.52387 63.8479C5.22672 64.8427 3.32486 66.2596 2.00687 67.958C0.688874 69.6565 0.000536358 71.5776 0.0101082 73.5307C0.0101082 79.68 6.7213 84.675 14.9823 84.675H23.0726V94.8C17.9989 94.8 13.8476 97.8375 13.8476 101.55H142.998C142.997 100.583 142.712 99.6281 142.163 98.7488C141.614 97.8696 140.813 97.0869 139.815 96.4537C140.731 95.4232 141.452 94.3207 141.978 93.1462C143.136 90.6417 143.306 87.9491 142.469 85.377C141.632 82.805 139.822 80.4574 137.246 78.6034L137.214 78.5831C136.864 78.333 136.501 78.0932 136.125 77.8642ZM62.325 25.329V32.3895L48.4875 42.3761V25.329C48.4857 25.1459 48.5331 24.9644 48.6272 24.7948C48.7212 24.6252 48.86 24.4708 49.0356 24.3404C49.2112 24.21 49.4202 24.1062 49.6507 24.035C49.8811 23.9637 50.1284 23.9263 50.3786 23.925H60.48C60.7286 23.9248 60.9747 23.9615 61.2035 24.0327C61.4323 24.1039 61.6391 24.2082 61.8114 24.3393C61.9837 24.4704 62.118 24.6257 62.2063 24.7958C62.2946 24.9658 62.3349 25.1472 62.325 25.329ZM43.875 94.8V58.4175L85.3091 28.5319L126.854 58.4681V64.425H126.9V74.7356C124.589 74.46 122.23 74.4932 119.935 74.8335V63.4665C119.93 62.8267 119.581 62.2141 118.962 61.7617C118.344 61.3093 117.507 61.0535 116.633 61.05H100.175C99.3008 61.0535 98.4636 61.3093 97.8453 61.7617C97.2269 62.2141 96.8774 62.8267 96.8726 63.4665V75.5085C96.8774 76.1483 97.2269 76.7609 97.8453 77.2133C98.4636 77.6657 99.3008 77.9214 100.175 77.925H111.324C109.346 79.1637 107.72 80.6752 106.54 82.3732C104.063 82.9891 101.865 84.0937 100.191 85.5653C98.5171 87.0369 97.4309 88.8182 97.0525 90.7129C96.9787 90.9491 96.9387 91.1899 96.9326 91.4351C96.89 91.7062 96.87 91.979 96.8726 92.2519V92.2856C96.8757 93.1564 97.0156 93.9945 97.2923 94.8H92.2601C92.2601 92.9471 90.5904 91.425 88.5563 91.425H87.6384V64.8367C87.6384 62.7409 85.5305 61.05 82.9152 61.05H64.6958C62.0805 61.05 59.9726 62.7409 59.9726 64.8367V91.425H59.0639C57.0344 91.425 55.3601 92.9471 55.3601 94.8H43.875ZM102.131 94.8C102.864 96.1804 104.188 97.3414 105.867 98.1412H130.636V98.175L130.719 98.1412C132.938 97.2693 134.803 95.9839 136.125 94.4152C136.74 93.684 137.232 92.9055 137.601 92.0797C138.492 90.1738 138.626 88.1222 137.99 86.1625C137.353 84.2028 135.971 82.4151 134.003 81.0064C131.282 79.0275 127.6 77.9193 123.763 77.925C117.998 77.925 112.97 80.4292 110.572 84.0202C110.334 84.3858 109.993 84.7104 109.572 84.9728C109.151 85.2351 108.658 85.4292 108.127 85.5424C104.622 86.3557 102.039 88.6609 101.577 91.4014C101.531 91.4689 101.531 91.5364 101.577 91.6039C101.485 91.8064 101.485 92.0426 101.485 92.2822C101.485 93.1732 101.716 94.0204 102.131 94.8ZM80.7289 81.3C81.3405 81.3 81.9271 81.1222 82.3596 80.8057C82.7921 80.4893 83.0351 80.06 83.0351 79.6125C83.0351 79.1649 82.7921 78.7357 82.3596 78.4193C81.9271 78.1028 81.3405 77.925 80.7289 77.925C80.1172 77.925 79.5306 78.1028 79.0981 78.4193C78.6656 78.7357 78.4226 79.1649 78.4226 79.6125C78.4226 80.06 78.6656 80.4893 79.0981 80.8057C79.5306 81.1222 80.1172 81.3 80.7289 81.3Z" fill="#111111"/>
</svg>
