<svg width="120" height="129" viewBox="0 0 120 129" fill="none" xmlns="http://www.w3.org/2000/svg">
<path fill-rule="evenodd" clip-rule="evenodd" d="M67.9934 0.894641C67.2611 0.585119 66.4768 0.431611 65.6867 0.443174C64.8965 0.454737 64.1167 0.631138 63.393 0.961967C62.6694 1.2928 62.0167 1.77135 61.4734 2.36939C60.9301 2.96743 60.5072 3.67283 60.2298 4.44397C59.9523 5.21511 59.8259 6.03637 59.8579 6.85927C59.89 7.68217 60.0798 8.49005 60.4163 9.23522C60.7528 9.9804 61.2291 10.6478 61.8171 11.198C62.4051 11.7482 63.0929 12.17 63.8399 12.4386L65.9166 13.2526V32.7886L5.19386 50.0553C3.81511 50.4517 2.62078 51.3551 1.83187 52.5985C1.04296 53.8419 0.712873 55.341 0.902702 56.8185C1.09253 58.2959 1.78942 59.6517 2.86441 60.635C3.9394 61.6182 5.31972 62.1623 6.74994 62.1666V99.1666C6.74994 102.438 7.99666 105.575 10.2158 107.888C12.435 110.201 15.4449 111.5 18.5833 111.5H101.417C104.555 111.5 107.565 110.201 109.784 107.888C112.003 105.575 113.25 102.438 113.25 99.1666V31.3333C114.635 31.3319 115.976 30.824 117.039 29.8982C118.101 28.9723 118.819 27.6872 119.066 26.2667C119.313 24.8463 119.074 23.3805 118.391 22.1247C117.707 20.8689 116.623 19.9028 115.327 19.3946L67.9934 0.894641ZM101.417 27.1276L77.7499 17.8776V99.1666H101.417V27.1276ZM48.1666 80.6666V99.1666H65.9166V45.5783L18.5833 59.0216V99.1666H36.3333V80.6666C36.3333 79.0311 36.9566 77.4626 38.0662 76.3062C39.1758 75.1497 40.6807 74.5 42.2499 74.5C43.8191 74.5 45.3241 75.1497 46.4337 76.3062C47.5432 77.4626 48.1666 79.0311 48.1666 80.6666ZM80.7083 49.8333C80.7083 48.1978 81.3316 46.6293 82.4412 45.4728C83.5508 44.3163 85.0557 43.6666 86.6249 43.6666H92.5416C94.1108 43.6666 95.6157 44.3163 96.7253 45.4728C97.8349 46.6293 98.4583 48.1978 98.4583 49.8333C98.4583 51.4688 97.8349 53.0373 96.7253 54.1938C95.6157 55.3503 94.1108 56 92.5416 56H86.6249C85.0557 56 83.5508 55.3503 82.4412 54.1938C81.3316 53.0373 80.7083 51.4688 80.7083 49.8333ZM86.6249 68.3333C85.0557 68.3333 83.5508 68.983 82.4412 70.1395C81.3316 71.296 80.7083 72.8645 80.7083 74.5C80.7083 76.1355 81.3316 77.704 82.4412 78.8605C83.5508 80.0169 85.0557 80.6666 86.6249 80.6666H92.5416C94.1108 80.6666 95.6157 80.0169 96.7253 78.8605C97.8349 77.704 98.4583 76.1355 98.4583 74.5C98.4583 72.8645 97.8349 71.296 96.7253 70.1395C95.6157 68.983 94.1108 68.3333 92.5416 68.3333H86.6249Z" fill="black"/>
</svg>
