<?xml version="1.0" standalone="no"?>
<!DOCTYPE svg PUBLIC "-//W3C//DTD SVG 20010904//EN"
 "http://www.w3.org/TR/2001/REC-SVG-20010904/DTD/svg10.dtd">
<svg version="1.0" xmlns="http://www.w3.org/2000/svg"
 width="610.000000pt" height="610.000000pt" viewBox="0 0 610.000000 610.000000"
 preserveAspectRatio="xMidYMid meet">

<g transform="translate(0.000000,610.000000) scale(0.100000,-0.100000)"
fill="#000000" stroke="none">
<path d="M2765 6084 c-94 -10 -318 -48 -415 -70 -333 -78 -765 -262 -970 -414
-207 -154 -369 -290 -482 -404 -84 -85 -90 -89 -113 -76 -14 8 -63 13 -122 14
-83 1 -105 -2 -145 -22 -74 -37 -134 -96 -170 -170 l-33 -67 -5 -255 -6 -255
-37 -84 c-103 -230 -187 -519 -229 -781 -20 -129 -23 -180 -23 -460 0 -363 9
-442 81 -732 55 -218 133 -437 215 -600 51 -101 153 -278 198 -343 23 -33 58
-85 78 -115 20 -30 44 -62 53 -70 10 -8 50 -55 91 -105 167 -205 399 -415 624
-564 380 -254 741 -401 1180 -482 167 -31 736 -40 934 -14 172 21 404 75 548
126 172 60 326 120 338 129 6 5 65 37 130 71 142 73 299 174 448 287 59 45
110 82 113 82 7 0 165 160 272 276 247 265 447 588 590 954 72 184 100 276
141 471 48 228 53 310 48 696 -4 294 -8 364 -25 453 -80 419 -217 768 -434
1112 -51 81 -102 157 -113 170 -11 13 -53 66 -94 118 -98 123 -259 290 -394
406 -105 90 -305 235 -390 283 -23 13 -82 47 -132 75 -189 109 -489 226 -722
282 -272 66 -366 76 -693 79 -162 1 -313 1 -335 -1z m680 -188 c458 -65 873
-224 1235 -474 173 -119 264 -195 420 -352 319 -318 545 -679 685 -1093 97
-289 143 -540 152 -843 21 -681 -179 -1306 -591 -1849 -84 -111 -225 -265
-242 -265 -12 0 -14 154 -14 1085 l0 1085 85 0 c78 0 85 2 85 20 0 13 -62 74
-187 182 -103 90 -240 209 -305 266 l-118 104 0 308 0 309 38 3 37 3 0 100 0
100 -304 3 c-220 2 -307 -1 -318 -9 -10 -9 -13 -34 -11 -103 l3 -91 38 -3 37
-3 0 -101 0 -102 -27 26 c-33 30 -303 265 -461 402 -62 53 -117 96 -122 94 -5
-2 -106 -87 -224 -190 -118 -104 -217 -188 -220 -188 -3 0 -7 66 -8 148 l-3
147 -1067 3 -1066 2 -4 143 c-3 115 -8 149 -23 180 l-20 39 115 112 c274 267
545 448 905 604 236 102 553 182 840 211 128 14 529 5 660 -13z m-2727 -811
c69 -21 129 -69 166 -135 l31 -55 3 -977 2 -978 -41 45 c-23 24 -67 57 -98 72
-48 24 -68 28 -141 28 -104 0 -176 -29 -245 -100 l-45 -47 2 968 3 969 24 53
c44 97 150 169 252 171 19 1 58 -6 87 -14z m2893 -492 c24 -21 109 -94 189
-164 178 -154 615 -534 689 -598 30 -25 61 -53 70 -62 9 -8 84 -73 166 -144
189 -163 382 -331 415 -362 l25 -23 -1600 0 -1600 1 60 53 c98 87 758 662 889
774 67 57 141 123 166 146 25 23 122 107 215 188 94 80 190 164 215 186 25 23
48 41 51 42 3 0 25 -17 50 -37z m-552 -175 l-1 -153 -93 -82 c-51 -46 -95 -83
-98 -83 -4 0 -8 60 -9 133 l-3 132 -850 0 -850 0 -3 -842 c-2 -798 -1 -843 15
-843 10 0 208 0 441 0 l422 0 0 -105 0 -106 -727 3 c-716 3 -729 3 -774 24
-149 69 -213 232 -147 374 64 138 207 202 349 155 98 -33 189 -151 189 -246 0
-29 23 -55 40 -44 7 4 10 296 10 921 l0 914 1045 0 1045 0 -1 -152z m1621 67
l0 -55 -267 2 -268 3 4 45 c1 25 5 48 8 52 2 5 121 8 264 8 l259 0 0 -55z
m-80 -385 c0 -154 -3 -280 -7 -280 -5 0 -90 72 -190 160 l-183 161 0 113 c0
62 3 116 7 119 3 4 89 7 190 7 l183 0 0 -280z m-2760 19 l0 -201 -29 5 c-19 4
-33 1 -41 -8 -22 -27 0 -35 96 -35 87 0 94 1 94 20 0 13 -7 20 -20 21 -11 1
-26 2 -32 3 -10 1 -14 49 -16 199 l-2 197 460 0 460 0 0 -134 0 -135 -166
-145 -167 -146 -174 0 c-147 0 -175 -2 -180 -15 -3 -9 -2 -19 2 -23 3 -4 70
-9 148 -12 l141 -5 -224 -195 c-381 -331 -373 -320 -239 -320 l79 0 0 -235 0
-235 -185 0 -185 0 0 120 0 120 36 0 c31 0 35 3 32 23 -3 21 -8 22 -89 25 -67
2 -89 -1 -98 -12 -18 -22 -5 -36 35 -36 l34 0 0 -120 0 -120 -205 0 -205 0 0
315 0 315 333 0 c337 0 363 3 350 36 -4 12 -65 14 -344 14 l-339 0 0 155 0
155 218 2 c217 3 217 3 220 26 l3 22 -220 0 -221 0 0 280 0 280 320 0 320 0 0
-201z m-1539 -808 c-2 -375 1 -557 9 -602 22 -123 96 -216 209 -261 l56 -23
710 -2 c391 -1 718 -2 728 -3 16 0 17 -40 17 -700 l0 -700 -514 0 -515 0 -70
78 c-398 439 -644 967 -728 1562 -22 157 -25 588 -5 725 29 198 90 481 101
469 3 -2 4 -247 2 -543z m4749 -1206 l0 -1085 -555 0 -555 0 -2 468 -3 467
-370 0 -370 0 -3 -467 -2 -468 -555 0 -555 0 0 1085 0 1085 1485 0 1485 0 0
-1085z m-1160 -640 l0 -445 -325 0 -325 0 0 445 0 445 325 0 325 0 0 -445z
m1135 -515 c-11 -5 -16 -9 -11 -9 12 -1 -116 -121 -130 -121 -6 0 -20 -10 -31
-22 -20 -22 -44 -43 -75 -63 -52 -34 -134 -91 -138 -95 -30 -34 -342 -201
-462 -249 -43 -17 -86 -35 -95 -40 -26 -13 -236 -78 -328 -101 -484 -123 -999
-112 -1510 33 -97 28 -190 60 -200 68 -5 5 -17 9 -27 9 -10 0 -18 4 -18 9 0 5
-18 12 -40 16 -22 4 -40 11 -40 16 0 5 -6 9 -12 9 -24 0 -259 123 -392 205
-130 80 -415 308 -408 327 1 4 -8 8 -20 9 l-23 1 23 6 c35 10 3960 2 3937 -8z"/>
<path d="M3451 4069 c-142 -56 -223 -227 -176 -370 35 -106 107 -175 213 -205
139 -39 280 26 350 161 36 70 37 187 2 260 -31 63 -89 121 -149 148 -68 30
-172 33 -240 6z m214 -59 c195 -85 195 -359 0 -451 -55 -26 -146 -25 -201 1
-55 27 -120 98 -133 147 -21 79 -18 153 7 154 10 0 12 3 5 6 -10 3 -9 12 3 35
22 43 52 72 97 97 77 43 143 46 222 11z"/>
<path d="M2350 2555 l0 -365 255 0 255 0 0 365 0 365 -255 0 -255 0 0 -365z
m460 170 l0 -145 -205 0 -205 0 0 145 0 145 205 0 205 0 0 -145z m0 -340 l0
-145 -205 0 -205 0 0 145 0 145 205 0 205 0 0 -145z"/>
<path d="M3310 2555 l0 -365 255 0 255 0 0 365 0 365 -255 0 -255 0 0 -365z
m460 170 l0 -145 -205 0 -205 0 0 145 0 145 205 0 205 0 0 -145z m0 -340 l0
-145 -205 0 -205 0 0 145 0 145 205 0 205 0 0 -145z"/>
<path d="M4270 2555 l0 -365 255 0 255 0 0 365 0 365 -255 0 -255 0 0 -365z
m460 170 l0 -145 -205 0 -205 0 0 145 0 145 205 0 205 0 0 -145z m0 -340 l0
-145 -205 0 -205 0 0 145 0 145 205 0 205 0 0 -145z"/>
<path d="M2350 1595 l0 -365 253 2 252 3 3 363 2 362 -255 0 -255 0 0 -365z
m460 170 l0 -145 -205 0 -205 0 0 145 0 145 205 0 205 0 0 -145z m0 -340 l0
-145 -205 0 -205 0 0 145 0 145 205 0 205 0 0 -145z"/>
<path d="M4272 1598 l3 -363 253 -3 252 -2 0 365 0 365 -255 0 -255 0 2 -362z
m458 167 l0 -145 -205 0 -205 0 0 145 0 145 205 0 205 0 0 -145z m0 -340 l0
-145 -205 0 -205 0 0 145 0 145 205 0 205 0 0 -145z"/>
</g>
</svg>
