<svg width="67" height="58" viewBox="0 0 67 58" fill="none" xmlns="http://www.w3.org/2000/svg">
<path d="M60.4167 50.0759H54.1667V7.53574H56.25C56.8026 7.53574 57.3325 7.34899 57.7232 7.01658C58.1139 6.68417 58.3334 6.23333 58.3334 5.76323C58.3334 5.29313 58.1139 4.84229 57.7232 4.50988C57.3325 4.17747 56.8026 3.99072 56.25 3.99072H10.4167C9.86415 3.99072 9.33425 4.17747 8.94355 4.50988C8.55285 4.84229 8.33335 5.29313 8.33335 5.76323C8.33335 6.23333 8.55285 6.68417 8.94355 7.01658C9.33425 7.34899 9.86415 7.53574 10.4167 7.53574H12.5V50.0759H6.25002C5.69749 50.0759 5.16758 50.2627 4.77688 50.5951C4.38618 50.9275 4.16669 51.3783 4.16669 51.8484C4.16669 52.3185 4.38618 52.7694 4.77688 53.1018C5.16758 53.4342 5.69749 53.6209 6.25002 53.6209H60.4167C60.9692 53.6209 61.4991 53.4342 61.8898 53.1018C62.2805 52.7694 62.5 52.3185 62.5 51.8484C62.5 51.3783 62.2805 50.9275 61.8898 50.5951C61.4991 50.2627 60.9692 50.0759 60.4167 50.0759ZM22.9167 12.8533H29.1667C29.7192 12.8533 30.2491 13.04 30.6398 13.3724C31.0305 13.7048 31.25 14.1557 31.25 14.6258C31.25 15.0959 31.0305 15.5467 30.6398 15.8791C30.2491 16.2115 29.7192 16.3983 29.1667 16.3983H22.9167C22.3642 16.3983 21.8342 16.2115 21.4435 15.8791C21.0528 15.5467 20.8334 15.0959 20.8334 14.6258C20.8334 14.1557 21.0528 13.7048 21.4435 13.3724C21.8342 13.04 22.3642 12.8533 22.9167 12.8533ZM22.9167 21.7158H29.1667C29.7192 21.7158 30.2491 21.9025 30.6398 22.235C31.0305 22.5674 31.25 23.0182 31.25 23.4883C31.25 23.9584 31.0305 24.4092 30.6398 24.7417C30.2491 25.0741 29.7192 25.2608 29.1667 25.2608H22.9167C22.3642 25.2608 21.8342 25.0741 21.4435 24.7417C21.0528 24.4092 20.8334 23.9584 20.8334 23.4883C20.8334 23.0182 21.0528 22.5674 21.4435 22.235C21.8342 21.9025 22.3642 21.7158 22.9167 21.7158ZM20.8334 32.3508C20.8334 31.8807 21.0528 31.4299 21.4435 31.0975C21.8342 30.7651 22.3642 30.5783 22.9167 30.5783H29.1667C29.7192 30.5783 30.2491 30.7651 30.6398 31.0975C31.0305 31.4299 31.25 31.8807 31.25 32.3508C31.25 32.8209 31.0305 33.2718 30.6398 33.6042C30.2491 33.9366 29.7192 34.1233 29.1667 34.1233H22.9167C22.3642 34.1233 21.8342 33.9366 21.4435 33.6042C21.0528 33.2718 20.8334 32.8209 20.8334 32.3508ZM39.5834 50.0759H27.0834V41.2134H39.5834V50.0759ZM43.75 34.1233H37.5C36.9475 34.1233 36.4176 33.9366 36.0269 33.6042C35.6362 33.2718 35.4167 32.8209 35.4167 32.3508C35.4167 31.8807 35.6362 31.4299 36.0269 31.0975C36.4176 30.7651 36.9475 30.5783 37.5 30.5783H43.75C44.3026 30.5783 44.8325 30.7651 45.2232 31.0975C45.6139 31.4299 45.8334 31.8807 45.8334 32.3508C45.8334 32.8209 45.6139 33.2718 45.2232 33.6042C44.8325 33.9366 44.3026 34.1233 43.75 34.1233ZM43.75 25.2608H37.5C36.9475 25.2608 36.4176 25.0741 36.0269 24.7417C35.6362 24.4092 35.4167 23.9584 35.4167 23.4883C35.4167 23.0182 35.6362 22.5674 36.0269 22.235C36.4176 21.9025 36.9475 21.7158 37.5 21.7158H43.75C44.3026 21.7158 44.8325 21.9025 45.2232 22.235C45.6139 22.5674 45.8334 23.0182 45.8334 23.4883C45.8334 23.9584 45.6139 24.4092 45.2232 24.7417C44.8325 25.0741 44.3026 25.2608 43.75 25.2608ZM43.75 16.3983H37.5C36.9475 16.3983 36.4176 16.2115 36.0269 15.8791C35.6362 15.5467 35.4167 15.0959 35.4167 14.6258C35.4167 14.1557 35.6362 13.7048 36.0269 13.3724C36.4176 13.04 36.9475 12.8533 37.5 12.8533H43.75C44.3026 12.8533 44.8325 13.04 45.2232 13.3724C45.6139 13.7048 45.8334 14.1557 45.8334 14.6258C45.8334 15.0959 45.6139 15.5467 45.2232 15.8791C44.8325 16.2115 44.3026 16.3983 43.75 16.3983Z" fill="#111111"/>
</svg>
