<svg width="68" height="58" viewBox="0 0 68 58" fill="none" xmlns="http://www.w3.org/2000/svg">
<g clip-path="url(#clip0_11_178)">
<path fill-rule="evenodd" clip-rule="evenodd" d="M21.381 3.05203C25.5735 1.50651 30.0947 0.710819 34.6637 0.714367C39.2329 0.717915 43.7523 1.52063 47.9415 3.07265C52.1306 4.62468 55.9 6.89288 59.0156 9.73639C62.1311 12.5799 64.5263 15.938 66.0524 19.6022C67.3381 22.6732 66.7667 26.1898 64.5524 28.8476C63.442 30.1656 61.9799 31.2406 60.2862 31.9843C58.5925 32.7281 56.7155 33.1193 54.8096 33.1259H45.9048C44.1959 33.1207 42.5415 33.637 41.2418 34.581C39.9421 35.525 39.0833 36.8341 38.8212 38.2708C38.559 39.7075 38.911 41.1766 39.8131 42.4113C40.7153 43.6461 42.1079 44.5648 43.7381 45.0007C46.3572 45.8312 48.1905 47.8448 48.3667 50.2108C48.5385 51.5559 48.1517 52.9096 47.2732 54.0374C46.3947 55.1652 45.0801 55.9958 43.5572 56.3853C40.6484 57.0886 37.6382 57.4418 34.6143 57.4346C28.5065 57.4314 22.517 56.0005 17.3 53.298C12.1033 50.5747 7.87597 46.699 5.07151 42.0868C2.26705 37.4746 0.991266 32.2999 1.381 27.1176C1.83338 21.9396 3.93389 16.964 7.45725 12.7244C10.9806 8.48479 15.7939 5.14115 21.381 3.05203ZM22.0953 29.0745C23.0333 29.0745 23.9621 28.9173 24.8287 28.6119C25.6953 28.3065 26.4828 27.8588 27.146 27.2945C27.8093 26.7302 28.3355 26.0602 28.6944 25.3229C29.0534 24.5856 29.2381 23.7954 29.2381 22.9973C29.2381 22.1992 29.0534 21.409 28.6944 20.6717C28.3355 19.9343 27.8093 19.2644 27.146 18.7001C26.4828 18.1358 25.6953 17.6881 24.8287 17.3827C23.9621 17.0773 23.0333 16.9201 22.0953 16.9201C20.2009 16.9201 18.3841 17.5604 17.0445 18.7001C15.705 19.8398 14.9524 21.3855 14.9524 22.9973C14.9524 24.6091 15.705 26.1548 17.0445 27.2945C18.3841 28.4342 20.2009 29.0745 22.0953 29.0745ZM50.6667 16.9201C50.6667 18.5319 49.9142 20.0776 48.5746 21.2173C47.2351 22.357 45.4183 22.9973 43.5238 22.9973C41.6294 22.9973 39.8126 22.357 38.4731 21.2173C37.1335 20.0776 36.381 18.5319 36.381 16.9201C36.381 15.3084 37.1335 13.7626 38.4731 12.6229C39.8126 11.4832 41.6294 10.843 43.5238 10.843C45.4183 10.843 47.2351 11.4832 48.5746 12.6229C49.9142 13.7626 50.6667 15.3084 50.6667 16.9201ZM22.0953 43.2545C23.3582 43.2545 24.5694 42.8277 25.4625 42.0679C26.3555 41.3081 26.8572 40.2776 26.8572 39.2031C26.8572 38.1286 26.3555 37.0981 25.4625 36.3383C24.5694 35.5785 23.3582 35.1516 22.0953 35.1516C20.8323 35.1516 19.6211 35.5785 18.7281 36.3383C17.8351 37.0981 17.3334 38.1286 17.3334 39.2031C17.3334 40.2776 17.8351 41.3081 18.7281 42.0679C19.6211 42.8277 20.8323 43.2545 22.0953 43.2545Z" fill="#111111"/>
</g>
<defs>
<clipPath id="clip0_11_178">
<rect width="66.6667" height="56.7202" fill="white" transform="translate(0.666748 0.714355)"/>
</clipPath>
</defs>
</svg>
