<svg width="160" height="120" viewBox="0 0 160 120" fill="none" xmlns="http://www.w3.org/2000/svg">
<path d="M33.225 65.2744H51.9575V51.2119H33.225V65.2744ZM43.525 52.6181H50.0825V57.5381H43.525V52.6181ZM43.525 58.9462H50.0825V63.87H43.525V58.9462ZM35.095 52.6181H41.65V57.5381H35.095V52.6181ZM35.095 58.9462H41.65V63.87H35.095V58.9462ZM75.8425 65.2744H88.955V51.2119H75.8425V65.2744ZM83.3375 52.6181H87.0875V57.5381H83.3375V52.6181ZM83.3375 58.9462H87.0875V63.87H83.3375V58.9462ZM77.7175 52.6181H81.46V57.5381H77.7175V52.6181ZM77.7175 58.9462H81.46V63.87H77.7175V58.9462ZM88.0875 86.4431H69.3575V100.507H88.0875V86.4431ZM77.785 99.0993H71.2275V94.1794H77.785V99.0993ZM77.785 92.7731H71.2275V87.8494H77.785V92.7731ZM86.215 99.0993H79.655V94.1794H86.215V99.0993ZM86.215 92.7731H79.655V87.8494H86.215V92.7731Z" fill="#111111"/>
<path d="M153.51 93.5213C153.35 93.5588 152.193 93.8157 151.088 94.4082C150.54 94.1166 149.947 93.8779 149.32 93.6975V90.9188L147.827 91.2375C146.961 91.4315 146.142 91.7312 145.405 92.1244C144.67 91.7317 143.854 91.4321 142.99 91.2375L141.497 90.9188V93.0038L140.14 93.2888C139.982 93.3282 138.823 93.5832 137.717 94.1775C137.426 94.0233 137.12 93.8848 136.803 93.7632V68.52C136.99 68.6157 137.145 68.6757 137.345 68.7806C148.315 74.4938 149.852 64.8319 148.652 61.4213C146.367 54.9038 152.673 53.3156 154.41 47.8913C157.492 38.2425 147.24 32.9813 150.408 23.7713C153.585 14.5632 143.115 -5.6756 129.615 8.8294C125.155 13.6238 119.682 5.01565 112.63 12.4219C105.575 19.8244 109.235 26.2219 111.405 31.0556C115.728 40.6632 107.07 43.7775 112.747 51.8213C118.425 59.8613 110.267 63.7369 120.96 68.2219C124.447 69.6825 126.228 69.6338 127.435 69.1144V76.9725L98.7925 71.0307V42.4219H105.815L84.74 32.3531V21.3281H87.085V17.8125H70.69V21.3281H73.035V26.7582L54.3025 17.8125L7.465 42.4219H14.4875V71.97L5 77.7282H14.4875V109.219H5.1225V116.25H154.745V109.219H151.542V100.729H152.005C152.8 100.728 153.562 100.491 154.124 100.07C154.686 99.6483 155.002 99.0767 155.003 98.4807V93.2063L153.51 93.5213ZM144.607 37.5713C145.857 37.5713 147.055 37.9434 147.938 38.6059C148.821 39.2684 149.318 40.1669 149.318 41.1038C149.318 42.0407 148.821 42.9392 147.938 43.6016C147.055 44.2641 145.857 44.6363 144.607 44.6363C142.003 44.6363 146.09 43.0519 146.09 41.1038C146.09 39.1519 142.003 37.5713 144.607 37.5713ZM140.533 18.6075C140.949 18.6075 141.362 18.6691 141.748 18.7888C142.133 18.9085 142.483 19.0839 142.778 19.305C143.072 19.5261 143.306 19.7886 143.466 20.0775C143.625 20.3664 143.708 20.6761 143.708 20.9888C143.708 21.3015 143.625 21.6111 143.466 21.9C143.306 22.1889 143.072 22.4515 142.778 22.6726C142.483 22.8937 142.133 23.0691 141.748 23.1888C141.362 23.3084 140.949 23.37 140.533 23.37C138.783 23.37 141.39 22.305 141.39 20.9888C141.39 19.6725 138.783 18.6075 140.533 18.6075ZM140.492 57.3638C141.425 57.3638 142.319 57.6415 142.978 58.1359C143.637 58.6303 144.008 59.3008 144.008 60C144.008 60.6992 143.637 61.3697 142.978 61.8641C142.319 62.3585 141.425 62.6363 140.492 62.6363C138.548 62.6363 140.492 61.4607 140.492 60C140.492 58.5431 138.548 57.3638 140.492 57.3638ZM70.695 42.4219H94.1075V70.5469H70.695V42.4219ZM19.175 42.4219H66.0075V70.5469H19.175V42.4219ZM48.535 99.2644C48.1707 99.2644 47.8212 99.1559 47.5636 98.9626C47.306 98.7694 47.1613 98.5073 47.1613 98.2341C47.1613 97.9608 47.306 97.6988 47.5636 97.5055C47.8212 97.3123 48.1707 97.2038 48.535 97.2038C48.8993 97.2038 49.2488 97.3123 49.5064 97.5055C49.764 97.6988 49.9087 97.9608 49.9087 98.2341C49.9087 98.5073 49.764 98.7694 49.5064 98.9626C49.2488 99.1559 48.8993 99.2644 48.535 99.2644ZM96.1275 109.219H51.735V89.9925H53.5675V87.2457H31.6125V89.9925H33.4375V109.219H19.175V77.7282H96.1275V109.219ZM112.633 99.0994H110.332V94.1794H112.402V98.25C112.402 98.5519 112.488 98.8369 112.633 99.0994ZM110.332 92.7732V87.8494H114.08V92.7732H110.332ZM113.575 94.1363C113.575 94.1363 115.233 94.4907 116.312 95.3325C117.398 94.4925 119.055 94.1363 119.055 94.1363V98.25C119.056 98.4304 119.009 98.6092 118.918 98.776C118.827 98.9428 118.692 99.0945 118.522 99.2222C118.352 99.3499 118.151 99.4512 117.928 99.5202C117.706 99.5892 117.468 99.6246 117.227 99.6244H115.402C115.162 99.6242 114.925 99.5884 114.703 99.5191C114.482 99.4499 114.28 99.3485 114.111 99.2209C113.942 99.0932 113.808 98.9417 113.717 98.7751C113.625 98.6085 113.579 98.4301 113.58 98.25V94.1363H113.575ZM115.855 109.219H100.815V77.7282H117.97V93.4988C117.384 93.6752 116.827 93.903 116.312 94.1775C116.193 94.1138 116.07 94.0632 115.948 94.0088V86.4413H102.835V100.506H115.855V109.219ZM104.71 92.7732V87.8494H108.455V92.7732H104.71ZM108.455 94.1794V99.0994H104.71V94.1794H108.455ZM117.97 109.219H116.77V103.671C117.05 104.048 117.46 104.353 117.97 104.559V109.219ZM120.77 109.219H119.86V104.844H120.77V109.219ZM121.18 103.965H119.35C119.11 103.965 118.873 103.93 118.651 103.861C118.429 103.793 118.228 103.692 118.058 103.565C117.888 103.438 117.754 103.287 117.662 103.121C117.57 102.954 117.522 102.776 117.522 102.596V100.457C117.983 100.423 118.426 100.307 118.816 100.119C119.205 99.9314 119.53 99.677 119.762 99.3769C119.932 99.4763 120.112 99.5569 120.265 99.675C121.345 98.835 123.005 98.4844 123.005 98.4844V102.594C123.005 102.774 122.958 102.952 122.867 103.119C122.775 103.285 122.641 103.436 122.471 103.563C122.302 103.691 122.101 103.792 121.879 103.861C121.657 103.93 121.42 103.965 121.18 103.965ZM123.542 109.219H122.658V104.507C123.011 104.353 123.306 104.156 123.542 103.914V109.219ZM123.042 97.56C122.566 97.5522 122.113 97.4051 121.78 97.15C121.446 96.895 121.259 96.5523 121.257 96.195V92.0794C121.257 92.0794 122.917 92.4319 124 93.2757C125.082 92.4338 126.742 92.0794 126.742 92.0794V96.195C126.743 96.3751 126.696 96.5534 126.604 96.7198C126.512 96.8862 126.378 97.0374 126.208 97.1648C126.038 97.2921 125.837 97.393 125.615 97.4618C125.393 97.5306 125.155 97.5659 124.915 97.5657H124.18V97.3182L123.042 97.56ZM127.44 109.219H124.455V98.4469H124.915C125.662 98.4469 126.325 98.22 126.853 97.8788V98.4788C126.853 98.9607 127.098 99.3807 127.44 99.7463V109.219ZM127.44 91.0219L126.42 91.2375C125.554 91.4317 124.736 91.7313 124 92.1244C123.58 91.899 123.13 91.7067 122.658 91.5507V77.7282H127.44V91.0219ZM141.635 98.25V96.6938C141.807 97.2525 142.238 97.7175 142.852 98.0269C142.458 98.1676 142.081 98.3338 141.725 98.5238L141.577 98.4544C141.59 98.3869 141.635 98.3232 141.635 98.25ZM128.278 34.7381C128.278 36.1969 130.215 37.3744 128.278 37.3744C127.345 37.3744 126.451 37.0967 125.792 36.6023C125.133 36.1079 124.762 35.4373 124.762 34.7381C124.762 34.039 125.133 33.3684 125.792 32.874C126.451 32.3796 127.345 32.1019 128.278 32.1019C130.215 32.1019 128.278 33.2831 128.278 34.7381ZM128.18 15.0357C130.805 15.0357 126.9 16.6369 126.9 18.6075C126.9 20.5781 130.805 22.1775 128.18 22.1775C127.546 22.1884 126.915 22.1041 126.324 21.9296C125.734 21.755 125.196 21.4937 124.742 21.1611C124.288 20.8284 123.928 20.431 123.681 19.9924C123.435 19.5537 123.308 19.0825 123.308 18.6066C123.308 18.1306 123.435 17.6595 123.681 17.2208C123.928 16.7821 124.288 16.3848 124.742 16.0521C125.196 15.7195 125.734 15.4582 126.324 15.2836C126.915 15.109 127.546 15.0247 128.18 15.0357ZM117.118 27.66C117.118 26.205 118.695 25.0238 120.632 25.0238C122.57 25.0238 120.048 26.205 120.048 27.66C120.048 29.1206 122.57 30.2982 120.632 30.2982C120.171 30.2982 119.713 30.2299 119.287 30.0973C118.86 29.9647 118.473 29.7703 118.146 29.5253C117.82 29.2803 117.561 28.9895 117.384 28.6695C117.208 28.3494 117.117 28.0064 117.118 27.66ZM126.088 52.3294C124.222 52.3294 122.434 51.7737 121.115 50.7846C119.796 49.7954 119.055 48.4539 119.055 47.055C119.055 45.6562 119.796 44.3146 121.115 43.3255C122.434 42.3363 124.222 41.7807 126.088 41.7807C129.97 41.7807 124.555 44.1432 124.555 47.055C124.555 49.9669 129.968 52.3294 126.088 52.3294ZM131.05 109.219H130.14V100.729H131.05V109.219ZM133.503 98.4788C133.503 99.2382 132.685 99.8475 131.678 99.8475H129.853C129.613 99.8478 129.375 99.8126 129.153 99.7439C128.932 99.6752 128.73 99.5744 128.56 99.4473C128.391 99.3202 128.256 99.1692 128.164 99.003C128.072 98.8368 128.025 98.6587 128.025 98.4788V94.3688C128.025 94.3688 129.682 94.7194 130.768 95.5613C131.847 94.7194 133.508 94.3688 133.508 94.3688V98.4788H133.503ZM134.982 98.25V94.1363C134.982 94.1363 136.64 94.4907 137.723 95.3344C138.805 94.4925 140.465 94.1363 140.465 94.1363V98.25C140.466 98.4304 140.419 98.6092 140.328 98.776C140.237 98.9428 140.102 99.0945 139.932 99.2222C139.762 99.3499 139.561 99.4512 139.338 99.5202C139.116 99.5892 138.878 99.6246 138.638 99.6244H136.815C136.574 99.6251 136.335 99.5901 136.113 99.5213C135.89 99.4525 135.687 99.3513 135.517 99.2235C135.347 99.0957 135.212 98.9439 135.12 98.7769C135.028 98.6098 134.982 98.4307 134.982 98.25ZM137.27 109.219H136.805V100.506H137.27V109.219ZM141.268 109.219H138.182V103.618C138.428 103.985 138.804 104.294 139.268 104.511C139.733 104.728 140.268 104.845 140.815 104.848H141.27L141.268 109.219ZM140.812 103.969C140.327 103.968 139.861 103.823 139.518 103.566C139.175 103.308 138.982 102.959 138.982 102.594V100.449C139.935 100.365 140.728 99.9544 141.19 99.3638C141.37 99.4688 141.562 99.5475 141.728 99.675C142.81 98.835 144.47 98.4788 144.47 98.4788V102.593C144.471 102.773 144.424 102.952 144.333 103.118C144.242 103.285 144.107 103.437 143.937 103.565C143.767 103.692 143.566 103.794 143.343 103.863C143.121 103.932 142.883 103.967 142.643 103.967L140.812 103.969ZM144.952 109.219H142.18V104.848H142.64C143.592 104.848 144.405 104.49 144.955 103.969L144.952 109.219ZM144.495 97.5675C144.255 97.5673 144.018 97.5316 143.797 97.4626C143.576 97.3936 143.374 97.2926 143.205 97.1653C143.036 97.038 142.902 96.887 142.81 96.7208C142.719 96.5547 142.672 96.3766 142.673 96.1969V92.0813C142.673 92.0813 144.325 92.4338 145.408 93.2757C146.49 92.4357 148.15 92.0813 148.15 92.0813V96.1969C148.15 96.377 148.103 96.5553 148.012 96.7217C147.92 96.8881 147.785 97.0393 147.615 97.1666C147.446 97.294 147.244 97.3949 147.022 97.4637C146.8 97.5325 146.563 97.5678 146.322 97.5675H144.495ZM150.63 109.219H145.865V98.4469H146.322C146.625 98.4469 146.9 98.3832 147.177 98.3194V98.4807C147.178 99.0771 147.495 99.6489 148.057 100.07C148.62 100.492 149.382 100.729 150.177 100.729H150.632L150.63 109.219ZM153.827 98.4788C153.827 99.2382 153.01 99.8475 152.003 99.8475H150.175C149.935 99.8478 149.698 99.8126 149.476 99.7439C149.254 99.6752 149.053 99.5744 148.883 99.4473C148.713 99.3202 148.579 99.1692 148.487 99.003C148.395 98.8368 148.348 98.6587 148.348 98.4788V97.8338C148.938 97.4194 149.322 96.8457 149.322 96.195V94.6575C149.979 94.8764 150.578 95.1818 151.09 95.5594C152.17 94.7175 153.83 94.3669 153.83 94.3669L153.827 98.4788Z" fill="#111111"/>
</svg>
